<?xml version="1.0" encoding="UTF-8" standalone="no"?>
<!-- Created with Inkscape (http://www.inkscape.org/) -->

<svg
   xmlns:dc="http://purl.org/dc/elements/1.1/"
   xmlns:cc="http://creativecommons.org/ns#"
   xmlns:rdf="http://www.w3.org/1999/02/22-rdf-syntax-ns#"
   xmlns:svg="http://www.w3.org/2000/svg"
   xmlns="http://www.w3.org/2000/svg"
   xmlns:sodipodi="http://sodipodi.sourceforge.net/DTD/sodipodi-0.dtd"
   xmlns:inkscape="http://www.inkscape.org/namespaces/inkscape"
   width="70mm"
   height="40mm"
   viewBox="0 0 70 40"
   version="1.1"
   id="svg8"
   inkscape:version="0.92.1 r15371"
   sodipodi:docname="dibujo.svg"
   inkscape:export-filename="C:\Users\nicolas\Desktop\NextU\Evaluacion_Final\Img_Audios\dibujo.png"
   inkscape:export-xdpi="96"
   inkscape:export-ydpi="96">
  <defs
     id="defs2" />
  <sodipodi:namedview
     id="base"
     pagecolor="#ffffff"
     bordercolor="#666666"
     borderopacity="1.0"
     inkscape:pageopacity="0.0"
     inkscape:pageshadow="2"
     inkscape:zoom="0.7"
     inkscape:cx="12.047257"
     inkscape:cy="763.81549"
     inkscape:document-units="mm"
     inkscape:current-layer="layer1"
     showgrid="false"
     inkscape:window-width="1366"
     inkscape:window-height="705"
     inkscape:window-x="-8"
     inkscape:window-y="-8"
     inkscape:window-maximized="1" />
  <metadata
     id="metadata5">
    <rdf:RDF>
      <cc:Work
         rdf:about="">
        <dc:format>image/svg+xml</dc:format>
        <dc:type
           rdf:resource="http://purl.org/dc/dcmitype/StillImage" />
        <dc:title></dc:title>
      </cc:Work>
    </rdf:RDF>
  </metadata>
  <g
     inkscape:label="Capa 1"
     inkscape:groupmode="layer"
     id="layer1">
    <g
       id="layer1-0"
       inkscape:label="Capa 1"
       transform="matrix(1.046296,0,0,1.0936984,-0.30549806,-1.1845188)">
      <g
         transform="matrix(0.67796612,0,0,0.64485983,-0.13454654,-0.28074328)"
         inkscape:label="Capa 1"
         id="layer1-7">
        <ellipse
           id="path60"
           cx="23.056566"
           cy="23.156244"
           rx="22.300596"
           ry="20.221727"
           style="fill:#000080;stroke-width:0.11264285" />
        <flowRoot
           xml:space="preserve"
           id="flowRoot64"
           style="font-style:normal;font-weight:normal;font-size:40px;line-height:1.25;font-family:sans-serif;letter-spacing:0px;word-spacing:0px;fill:#000000;fill-opacity:1;stroke:none"><flowRegion
             id="flowRegion66"><rect
               id="rect68"
               width="188.57143"
               height="111.42857"
               x="211.42857"
               y="308.23398" /></flowRegion><flowPara
             id="flowPara70" /></flowRoot>        <flowRoot
           xml:space="preserve"
           id="flowRoot72"
           style="font-style:normal;font-weight:normal;font-size:40px;line-height:1.25;font-family:sans-serif;letter-spacing:0px;word-spacing:0px;fill:#000000;fill-opacity:1;stroke:none"><flowRegion
             id="flowRegion74"><rect
               id="rect76"
               width="40"
               height="42.857143"
               x="242.85715"
               y="308.23398" /></flowRegion><flowPara
             id="flowPara78" /></flowRoot>        <flowRoot
           xml:space="preserve"
           id="flowRoot80"
           style="font-style:normal;font-weight:normal;font-size:40px;line-height:1.25;font-family:sans-serif;letter-spacing:0px;word-spacing:0px;fill:#000000;fill-opacity:1;stroke:none"><flowRegion
             id="flowRegion82"><rect
               id="rect84"
               width="222.85715"
               height="205.71428"
               x="174.28572"
               y="253.94826" /></flowRegion><flowPara
             id="flowPara86" /></flowRoot>        <ellipse
           style="fill:#f2f2f2;stroke-width:0.13485816"
           id="path106"
           cx="23.056566"
           cy="23.156244"
           rx="15.032253"
           ry="20.221727" />
        <flowRoot
           xml:space="preserve"
           id="flowRoot142"
           style="font-style:normal;font-weight:normal;font-size:40px;line-height:1.25;font-family:sans-serif;letter-spacing:0px;word-spacing:0px;fill:#000000;fill-opacity:1;stroke:none"><flowRegion
             id="flowRegion144"><rect
               id="rect146"
               width="203.04066"
               height="252.53813"
               x="283.85287"
               y="180.04736" /></flowRegion><flowPara
             id="flowPara148" /></flowRoot>        <path
           style="fill:#ff0000;stroke-width:0.12104917"
           id="path166"
           d="m 11.452535,26.127135 c -0.013,0.36283 -0.01,0.72597 -0.008,1.08893 0.01,0.31278 0.0928,0.61654 0.15833,0.92209 0.061,0.26962 0.0658,0.54516 0.13108,0.81375 0.0489,0.17447 0.10913,0.35799 0.21984,0.50986 0.1206,0.14759 0.24524,0.2918 0.35786,0.44516 0.11631,0.14124 0.30635,0.15068 0.48697,0.16488 0.24619,0.004 0.49735,0.0313 0.73983,-0.0132 0.26211,-0.0229 0.49171,-0.11516 0.72453,-0.21536 0.58572,-0.22879 1.50263,-0.73412 -1.3483,0.70441 -0.031,0.0157 0.0589,-0.0361 0.086,-0.0568 0.01,-0.007 0.1408,-0.12361 0.15264,-0.13409 0.17827,-0.1659 0.30959,-0.35816 0.42649,-0.56127 0.1012,-0.21571 0.17913,-0.44151 0.23877,-0.66929 0.0537,-0.22836 0.0592,-0.46218 0.0666,-0.6945 -0.007,-0.25432 0.003,-0.50418 0.0519,-0.7547 0.0565,-0.2961 0.12403,-0.58958 0.16451,-0.88803 0.0242,-0.27732 0.097,-0.54804 0.13489,-0.82382 0.0179,-0.28972 0.0394,-0.57679 0.0894,-0.86364 0.0531,-0.2863 0.0654,-0.57661 0.0754,-0.86612 0.005,-0.30395 0.006,-0.60796 0.004,-0.91194 -0.003,-0.26777 -0.002,-0.53553 -0.002,-0.8033 0.0189,-0.29597 -0.0338,-0.58788 -0.0716,-0.88079 -0.0195,-0.29925 -0.0842,-0.59324 -0.12699,-0.88994 -0.0426,-0.30265 -0.0508,-0.60787 -0.0582,-0.91248 -0.003,-0.29388 -0.002,-0.58776 -0.002,-0.88164 -9.2e-4,-0.30928 0.001,-0.61855 0.003,-0.92783 0.0235,-0.37928 -0.0328,-0.75521 -0.0722,-1.1318 -0.0384,-0.35065 -0.0473,-0.70302 -0.0556,-1.05503 -0.006,-0.26692 -0.007,-0.53389 -0.007,-0.80085 -1.3e-4,-0.23205 5e-5,-0.46409 1.2e-4,-0.69614 10e-5,-0.23067 1.2e-4,-0.46134 1.3e-4,-0.69201 10e-6,-0.23113 10e-6,-0.46227 0,-0.6934 0.002,-0.22567 -0.0139,-0.45138 0.0268,-0.67486 0.0383,-0.19288 0.0773,-0.38351 0.13925,-0.57149 0.0607,-0.17084 0.1457,-0.33408 0.24088,-0.49159 0.53156,-0.59675 1.38639,-0.99171 2.23496,-1.02414 0.27673,0.021 0.36438,0.21401 0.46051,0.41363 0.0968,0.19203 0.12547,0.40023 0.14392,0.60789 0.0151,0.22957 0.0139,0.45967 0.0139,0.68954 -0.01,0.26261 0.052,0.5216 0.0864,0.78141 0.0545,0.23766 0.11121,0.4739 0.14229,0.71515 5e-5,0.21039 0.0577,0.41226 0.10097,0.6173 0.0239,0.22252 0.11821,0.42943 0.19386,0.64018 0.0652,0.24187 0.11456,0.48713 0.16672,0.73177 0.0414,0.28562 0.0827,0.57046 0.12969,0.85551 0.062,0.30556 0.17328,0.6001 0.25183,0.90217 0.094,0.27462 0.15226,0.5569 0.22015,0.83723 0.0616,0.31559 0.11207,0.63269 0.16999,0.94903 0.0536,0.29854 0.0657,0.60022 0.11242,0.89951 0.0521,0.30829 0.13788,0.61027 0.18254,0.91982 0.0207,0.29978 0.0778,0.5955 0.12262,0.8928 0.0703,0.2719 0.12605,0.54451 0.15777,0.8222 0.0506,0.32116 0.0951,0.64289 0.16179,0.96176 0.069,0.30747 0.10057,0.62031 0.11517,0.93322 0.0111,0.27173 -6.1e-4,0.54291 0.043,0.81248 0.0484,0.23603 0.0743,0.47451 0.0886,0.71389 0.005,0.23149 0.066,0.45774 0.0994,0.68665 0.0316,0.26094 0.0343,0.52397 0.0383,0.78618 0.003,0.24179 0.002,0.4836 0.002,0.7254 0.008,0.22286 -0.0159,0.44743 0.0104,0.66941 0.0277,0.11265 0.11279,0.1119 0.21545,0.14369 0.0626,0.0194 0.12175,0.047 0.18411,0.0671 0.21384,0.0555 0.43817,0.0598 0.65914,0.0654 0.10877,0.006 0.23143,-0.006 0.33348,-0.0446 0.0297,-0.0112 0.10945,-0.0609 0.0814,-0.0467 -1.57386,0.79273 -2.04983,1.13366 -1.49703,0.74423 0.16025,-0.1551 0.2402,-0.36371 0.30346,-0.56371 0.0845,-0.22692 0.13397,-0.46047 0.1856,-0.69438 0.0599,-0.23458 0.16081,-0.45721 0.21842,-0.6924 0.0372,-0.24147 0.0621,-0.48277 0.11057,-0.72293 0.0446,-0.30686 0.0783,-0.61425 0.12804,-0.92065 0.0284,-0.28053 0.0983,-0.55501 0.14723,-0.83275 0.0477,-0.279 0.0532,-0.56144 0.0604,-0.84299 0.008,-0.39357 0.008,-0.78723 0.0106,-1.18085 0.003,-0.47685 -2.6e-4,-0.9537 -0.002,-1.43055 -0.0102,-0.38132 0.008,-0.76305 -0.0144,-1.14396 -0.0471,-0.45898 -0.0749,-0.9188 -0.12975,-1.37711 -0.0713,-0.51568 -0.0902,-1.03469 -0.0997,-1.55365 -0.009,-0.53855 -0.0119,-1.07716 -0.0134,-1.61576 -0.003,-0.39308 -0.005,-0.78615 -0.007,-1.17924 -4e-5,-0.30687 -0.003,-0.61376 -0.002,-0.92063 0.002,-0.32192 0.002,-0.64385 5.2e-4,-0.96578 0.001,-0.29356 -10e-4,-0.58713 -0.002,-0.88069 -0.0173,-0.29874 0.0368,-0.59316 0.0762,-0.88858 0.0502,-0.33575 0.1482,-0.66361 0.2429,-0.99101 0.10261,-0.3338303 0.20772,-0.6671303 0.33868,-0.9930803 0.0904,-0.24966 0.18528,-0.4795 0.3862,-0.6737 0.60887,-0.5813 1.36049,-0.83215 2.176,-1.25395 0.2806,-0.0841 0.41555,-0.0528 0.67662,0.0456 0.17867,0.11079 0.37638,0.18975 0.54319,0.31536 0.18557,0.10472 0.34666,0.23594 0.52146,0.3532 0.16891,0.14802 0.32269,0.31098 0.46592,0.47961 0.15371,0.21451 0.31353,0.42521 0.4544,0.64679 0.11263,0.24283 0.18349,0.50014 0.26147,0.75356 0.0603,0.2189303 0.0864,0.4447303 0.0782,0.6698503 -0.0157,0.23013 -0.10762,0.32531 -0.3048,0.45316 -0.58031,0.29187 -1.15541,0.59217 -1.74093,0.8756 -0.0317,0.0154 -0.072,0.008 -0.10622,0.0185 -0.13055,0.0393 -0.25194,0.10996 -0.3789,0.15811 -0.15276,0.0431 -0.075,0.0242 -0.23345,0.0566 0,0 1.51854,-1.04535 1.51854,-1.04535 v 0 c 0.14763,-0.0466 0.0751,-0.0211 0.21759,-0.0764 0.66601,-0.28389 1.93294,-0.54359 -1.07025,0.62977 0.0283,-0.0117 0.0565,-0.0234 0.0848,-0.035 0.025,-0.0162 0.0476,-0.0357 0.0749,-0.0485 0.12178,-0.0572 0.20819,-0.0797 0.22007,-0.22443 0.0456,-0.20216 -0.005,-0.4147 -0.0438,-0.61534 -0.0684,-0.24115 -0.13472,-0.48507 -0.23384,-0.71713 -0.13553,-0.2150703 -0.2929,-0.4175003 -0.44422,-0.6238103 -0.1363,-0.155 -0.27905,-0.30858 -0.44129,-0.44194 -0.17194,-0.12222 -0.34682,-0.23909 -0.5261,-0.35265 -0.15977,-0.10391 -0.33354,-0.19062 -0.50851,-0.27195 -0.20327,-0.0587 -0.39551,-0.0243 -0.5804,0.0722 3.01102,-1.57106 1.56593,-0.94024 1.08939,-0.47504 -0.26382,0.21011 -0.3202,0.29867 -0.42794,0.61086 -0.14693,0.31695 -0.24664,0.64766 -0.3478,0.97815 -0.10392,0.31739 -0.18773,0.6407903 -0.25515,0.9658803 -0.0314,0.28992 -0.0989,0.57714 -0.0796,0.86955 -0.001,0.29426 -0.004,0.58853 -0.002,0.8828 -10e-4,0.32178 -10e-4,0.64357 5.3e-4,0.96533 0.001,0.3075 -0.002,0.61502 -0.002,0.92251 -0.002,0.39538 -0.005,0.79075 -0.009,1.18613 -0.002,0.53872 -0.005,1.07749 0.004,1.61617 0.0138,0.51318 0.0339,1.02673 0.0994,1.53712 0.0569,0.45903 0.0929,0.91904 0.14256,1.37871 0.0361,0.38444 0.016,0.77048 0.0166,1.15596 -0.002,0.47719 -0.004,0.95438 -4.4e-4,1.43157 0.004,0.39185 0.006,0.78371 0.008,1.17556 -0.002,0.28791 -0.009,0.57681 -0.0477,0.86292 -0.0446,0.27932 -0.11894,0.55297 -0.15025,0.83382 -0.0522,0.30651 -0.0975,0.61138 -0.12162,0.92068 -0.0402,0.24264 -0.0947,0.48043 -0.10594,0.72648 -0.0461,0.24045 -0.13554,0.46597 -0.21588,0.69773 -0.0683,0.23031 -0.0801,0.47356 -0.1838,0.69651 -0.0532,0.22409 -0.14066,0.43903 -0.25799,0.6426 -0.49752,0.61352 -1.39766,1.04085 -2.24491,1.00855 -0.23675,-0.0121 -0.47567,-0.0297 -0.69844,-0.10853 -0.21653,-0.0787 -0.43056,-0.1471 -0.50225,-0.36947 -0.0409,-0.22821 -0.0114,-0.46095 -0.0196,-0.6914 5.2e-4,-0.24163 0.002,-0.48326 10e-4,-0.72489 -10e-4,-0.25612 -0.003,-0.51273 -0.031,-0.76787 -0.03,-0.23366 -0.095,-0.4633 -0.10621,-0.69803 -0.0105,-0.2342 -0.03,-0.46811 -0.0774,-0.699 -0.0494,-0.27643 -0.0471,-0.55188 -0.048,-0.83157 -0.0131,-0.30569 -0.0327,-0.61193 -0.0995,-0.91273 -0.0677,-0.32339 -0.11307,-0.64886 -0.1751,-0.97317 -0.0261,-0.27653 -0.0777,-0.54833 -0.15334,-0.81768 -0.0405,-0.29844 -0.10833,-0.59332 -0.12072,-0.89436 -0.0414,-0.3091 -0.12395,-0.60983 -0.18106,-0.91622 -0.0517,-0.29863 -0.0685,-0.59839 -0.11029,-0.89818 -0.0546,-0.31354 -0.11313,-0.62595 -0.16632,-0.93951 -0.0701,-0.2798 -0.12723,-0.56202 -0.22121,-0.83658 -0.072,-0.30787 -0.18698,-0.60497 -0.25647,-0.91338 -0.0476,-0.28231 -0.0988,-0.56301 -0.13095,-0.8471 -0.0508,-0.23833 -0.10583,-0.47538 -0.15817,-0.71317 -0.0753,-0.21758 -0.18324,-0.42848 -0.20895,-0.65733 -0.0409,-0.20992 -0.11045,-0.41494 -0.10438,-0.63026 -0.0255,-0.24178 -0.0755,-0.47924 -0.13977,-0.71522 -0.0306,-0.26604 -0.0934,-0.52977 -0.0984,-0.79721 2.6e-4,-0.22604 0.002,-0.45221 -0.009,-0.6781 -0.0129,-0.18876 -0.0299,-0.3797 -0.11684,-0.55491 -0.083,-0.16967 -0.0844,-0.25774 -0.32753,-0.23664 -0.086,0.01 -0.14234,0.0129 -0.22579,0.0333 -0.0335,0.008 -0.12843,0.0462 -0.0985,0.0303 2.46785,-1.3094703 2.01025,-0.98434 1.394,-0.74199 -0.13213,0.12589 -0.17607,0.29105 -0.27062,0.4384 -0.0539,0.18726 -0.12605,0.36599 -0.14622,0.5605 -0.0565,0.21394 -0.0532,0.42669 -0.0469,0.64641 10e-6,0.23113 10e-6,0.46226 2e-5,0.69339 10e-6,0.23068 3e-5,0.46135 -3e-5,0.69204 -10e-5,0.23223 -2.6e-4,0.46446 -0.001,0.69669 -10e-4,0.26744 -0.003,0.53488 -0.002,0.80232 0.003,0.34881 0.011,0.69782 0.0439,1.04557 0.0386,0.3809 0.0999,0.76078 0.0834,1.14425 10e-4,0.30861 0.004,0.61722 0.002,0.92583 -3.8e-4,0.29291 -10e-4,0.58583 0.001,0.87873 0.003,0.29924 0.009,0.59893 0.0461,0.89665 0.042,0.29782 0.11373,0.5917 0.12828,0.89223 0.0364,0.29829 0.10219,0.5948 0.0845,0.89616 6.1e-4,0.26801 0.002,0.53602 -1.1e-4,0.80404 -7.9e-4,0.3055 10e-4,0.61101 -0.005,0.91648 -0.004,0.29543 -0.0138,0.59119 -0.0579,0.8844 -0.0522,0.28483 -0.0975,0.56705 -0.0987,0.85678 -0.025,0.27919 -0.0966,0.549 -0.13344,0.82619 -0.0379,0.29952 -0.0981,0.59529 -0.15426,0.89201 -0.0412,0.24475 -0.0944,0.48302 -0.0663,0.73319 -2.5e-4,0.24149 -0.006,0.48398 -0.0481,0.72299 -0.0507,0.24111 -0.13784,0.47267 -0.22016,0.7061 -0.10567,0.21544 -0.22489,0.42409 -0.40081,0.60126 -0.51327,0.61925 -1.38053,0.91067 -2.15898,1.22034 -0.24109,0.0947 -0.49757,0.1461 -0.75907,0.17203 -0.25699,0.0107 -0.51575,0.007 -0.77135,-0.021 -0.23059,-0.0378 -0.44119,-0.10401 -0.57821,-0.28601 -0.11364,-0.15355 -0.23865,-0.2984 -0.35738,-0.44833 -0.1201,-0.171 -0.19985,-0.3678 -0.25051,-0.56391 -0.0663,-0.27173 -0.0709,-0.54815 -0.1235503,-0.8222 -0.0678,-0.31628 -0.15823,-0.62873 -0.17065,-0.95264 0.001,-0.36041 0.005,-0.721 -0.008,-1.08126 0,0 1.7100303,-0.77858 1.7100303,-0.77858 z"
           inkscape:connector-curvature="0" />
        <path
           style="fill:#ff0000;stroke-width:0.11663118"
           id="path168"
           d="m 21.414975,29.644155 c 0.19527,-0.19979 0.34856,-0.42668 0.52962,-0.63532 0.135,-0.13224 0.2661,-0.26946 0.36651,-0.42391 0.10159,-0.1318 0.19622,-0.26687 0.29604,-0.39955 0.0957,-0.13428 0.21092,-0.2588 0.33888,-0.37058 0.10815,-0.12301 0.21414,-0.24847 0.31796,-0.37462 0.10792,-0.17211 0.21455,-0.34388 0.33802,-0.50798 0.16509,-0.20036 0.29561,-0.4195 0.44274,-0.62971 0.13533,-0.20802 0.2517,-0.42491 0.37147,-0.63996 0.11417,-0.1993 0.19689,-0.41221 0.27229,-0.62487 0.0847,-0.23353 0.19746,-0.4571 0.26619,-0.69495 0.0773,-0.28755 0.18571,-0.56742 0.25606,-0.85632 0.0702,-0.29326 0.18279,-0.57618 0.25234,-0.8695 0.08,-0.30973 0.156,-0.62018 0.2319,-0.93072 0.0681,-0.28987 0.0784,-0.58602 0.12671,-0.87838 0.0487,-0.29472 0.13207,-0.58302 0.17796,-0.8782 0.0508,-0.246 0.11162,-0.4896 0.14363,-0.73825 0.0289,-0.2666 0.0284,-0.53466 0.0314,-0.80217 -0.0101,-0.29185 0.052,-0.5799 0.0853,-0.86921 0.0263,-0.25799 0.0331,-0.51711 0.0368,-0.77598 -0.0113,-0.31638 0.0182,-0.63031 0.0566,-0.94447 0.0406,-0.31288 0.0484,-0.62739 0.0969,-0.93947 0.0458,-0.24376 0.0735,-0.48932 0.0877,-0.7359 0.008,-0.22512 0.001,-0.44916 0.039,-0.67241 0.0537,-0.23703 0.0754,-0.47736 0.0877,-0.71831 -0.004,-0.2398 0.0155,-0.47559 0.0595,-0.71203 0.0477,-0.21455 0.0512,-0.43341 0.0773,-0.65001 0.0499,-0.24619 0.10326,-0.49148 0.16071,-0.7364 0.0296,-0.2186 0.0944,-0.43003 0.1512,-0.6437503 0.0355,-0.1919 0.0566,-0.38323 0.10826,-0.57265 0.0449,-0.16925 0.14026,-0.32034 0.26915,-0.45097 0.59725,-0.40397 0.0643,-0.0486 1.77424,-0.91297 0.14882,-0.0752 0.29855,-0.11943 0.46521,-0.15389 0.24106,-0.0791 0.49668,-0.14569 0.75558,-0.12361 0.24291,0.0684 0.39994,0.21613 0.54516,0.3919 0.21117,0.20513 0.3576,0.45067 0.49681,0.69626 0.14828,0.27403 0.24904,0.5643 0.3757,0.84613 0.11886,0.2919303 0.21186,0.5902603 0.31008,0.8877503 0.0749,0.29506 0.12048,0.59146 0.22017,0.88138 0.10091,0.25889 0.13438,0.53084 0.19574,0.79763 0.0606,0.24068 0.0882,0.48566 0.10321,0.7313 0.0101,0.28502 0.006,0.57017 0.004,0.85525 -0.0297,0.44369 -0.15032,0.87957 -0.26492,1.3114 -0.13731,0.42768 -0.28908,0.85349 -0.47247,1.26798 -0.12534,0.30475 -0.30247,0.58708 -0.49274,0.86351 -0.16187,0.26489 -0.38871,0.48612 -0.61833,0.70595 -0.25856,0.22647 -0.53528,0.43862 -0.81884,0.64094 -0.24144,0.16008 -0.4542,0.34981 -0.66818,0.53667 -0.17569,0.13657 -0.37379,0.24848 -0.56421,0.36842 -0.11775,0.1 -0.33935,0.13862 -0.42388,0.27027 0.15747,0.0167 0.30831,0.05 0.46226,0.0827 0.26542,0.0705 0.49102,0.14897 0.73244,0.26804 0.25607,0.0952 0.47738,0.24425 0.67309,0.415 0.18622,0.14507 0.34832,0.31006 0.50823,0.47692 0.15443,0.17213 0.32221,0.33433 0.48085,0.50325 0.16909,0.13281 0.26452,0.31701 0.37851,0.48579 0.15116,0.25817 0.26929,0.531 0.39676,0.79887 0.10867,0.25468 0.22553,0.50645 0.31838,0.76605 0.0962,0.28841 0.2203,0.56718 0.28949,0.86189 0.0785,0.33089 0.1782,0.65754 0.25506,0.98872 0.0575,0.25184 0.0754,0.50815 0.0839,0.76425 0.006,0.21723 -0.0983,0.39876 -0.23348,0.57281 -0.14169,0.16805 -0.31276,0.30345 -0.50681,0.42328 -0.80718,0.53887 -1.70945,0.946 -2.58677,1.39028 3.46051,-1.74616 0.0211,-0.009 -0.35476,0.17327 -0.15346,0.0745 -0.50728,0.152 -0.68909,0.20059 -0.25451,0.11918 -0.53862,0.16408 -0.82239,0.19053 -0.30474,0.0417 -0.50764,0.002 -0.79165,-0.0862 -0.22602,-0.0756 -0.46451,-0.14798 -0.66376,-0.27079 -0.17706,-0.0991 -0.32476,-0.23127 -0.48343,-0.35111 -0.14598,-0.12508 -0.27792,-0.26316 -0.42919,-0.38331 -0.15013,-0.14898 -0.29195,-0.30413 -0.42829,-0.46276 -0.16797,-0.1909 -0.34184,-0.37652 -0.49028,-0.57984 -0.12105,-0.14766 -0.25887,-0.28325 -0.3881,-0.4251 0,0 1.60241,-0.83786 1.60241,-0.83786 v 0 c 0.13268,0.14628 0.27175,0.28832 0.39328,0.44208 0.14592,0.20008 0.32116,0.37959 0.48758,0.56648 0.13096,0.15151 0.26611,0.30034 0.41574,0.4382 0.14259,0.12402 0.27681,0.25515 0.42238,0.37664 0.15352,0.11389 0.29442,0.24255 0.46846,0.33337 0.19879,0.10015 0.41824,0.17246 0.63444,0.23794 0.24578,0.0654 0.48915,0.0633 0.74248,0.0259 0.27661,-0.041 0.53821,-0.11762 0.79812,-0.20928 0.16392,-0.0472 0.33203,-0.09 0.49086,-0.14948 0.0584,-0.0219 0.2265,-0.10047 0.17189,-0.0721 -0.24165,0.12573 -4.07119,2.06359 0.34955,-0.17459 -2.75818,1.40027 -1.15927,0.6313 -0.57897,0.22569 0.1832,-0.11767 0.3883,-0.21155 0.514,-0.38459 0.15383,-0.12008 0.27007,-0.28576 0.29724,-0.46631 -0.004,-0.24878 -0.0135,-0.49817 -0.0611,-0.74404 -0.0679,-0.33251 -0.16933,-0.65811 -0.25379,-0.9875 -0.0652,-0.28991 -0.18641,-0.56406 -0.28518,-0.84603 -0.0865,-0.25636 -0.20941,-0.50077 -0.30885,-0.75327 -0.12049,-0.26144 -0.23574,-0.52749 -0.39002,-0.77498 -0.10964,-0.16188 -0.209,-0.33178 -0.36653,-0.46278 -0.15809,-0.16801 -0.31616,-0.33611 -0.47651,-0.50238 -0.15834,-0.16063 -0.31672,-0.32167 -0.49534,-0.46556 -0.19213,-0.15825 -0.41209,-0.27943 -0.65116,-0.37685 -0.22136,-0.10735 -0.46084,-0.17144 -0.70414,-0.2308 -0.21367,-0.0444 -0.45204,-0.0523 -0.58061,-0.2311 -0.1,-0.25393 0.11545,-0.34333 0.34539,-0.45337 0.19194,-0.11397 0.37331,-0.24089 0.57018,-0.34705 0.23434,-0.17382 0.42745,-0.3868 0.67212,-0.55071 0.28769,-0.19532 0.55522,-0.40711 0.8295,-0.61704 0.22559,-0.21569 0.46819,-0.4187 0.63392,-0.67614 0.18594,-0.27399 0.38903,-0.54038 0.50687,-0.84516 0.21477,-0.39911 0.3461,-0.82938 0.49922,-1.24851 0.11652,-0.41847 0.22472,-0.84242 0.26999,-1.27164 -0.002,-0.28119 -0.002,-0.56247 -0.0111,-0.84357 -0.0101,-0.23849 -0.0295,-0.477 -0.0856,-0.71113 -0.0604,-0.26235 -0.0961,-0.5288 -0.18477,-0.78563 -0.0998,-0.29126 -0.1608,-0.58457 -0.22162,-0.8835 -0.0935,-0.29353 -0.18669,-0.58658 -0.30105,-0.87453 -0.12253,-0.27816 -0.2269,-0.5625603 -0.37071,-0.8328003 -0.13166,-0.23783 -0.27745,-0.47051 -0.48172,-0.66749 -0.11977,-0.13056 -0.24951,-0.26068 -0.45582,-0.26437 -0.2486,0.0233 -0.48435,0.0914 -0.72067,0.16028 -0.11848,0.0373 -0.2271,0.0798 -0.33789,0.13216 -0.0353,0.0167 -0.14035,0.0685 -0.10569,0.0507 1.7053,-0.87472 1.987,-1.0257 1.41751,-0.72181 -0.16672,0.0714 -0.24525,0.20902 -0.32284,0.35065 -0.0481,0.19014 -0.10382,0.37389 -0.11118,0.57038 -0.0467,0.2173 -0.13931,0.42345 -0.1586,0.64541 -0.0547,0.2432203 -0.11464,0.4840903 -0.15631,0.7292903 -0.0603,0.21143 -0.0246,0.43685 -0.0809,0.6505 -0.0442,0.23148 -0.0869,0.45896 -0.0722,0.69522 -0.0104,0.24579 -0.0207,0.49287 -0.0745,0.73494 -0.0459,0.21777 -0.0506,0.43376 -0.0494,0.65534 -0.0118,0.25252 -0.035,0.50454 -0.086,0.75362 -0.0571,0.31052 -0.0698,0.62276 -0.10328,0.93581 -0.0415,0.3086 -0.0771,0.61554 -0.0589,0.92687 -0.002,0.26321 -0.005,0.5266 -0.0312,0.78901 -0.0291,0.28623 -0.0949,0.5697 -0.0957,0.85713 0.001,0.27096 0.005,0.54243 -0.0151,0.81295 -0.0263,0.25168 -0.0763,0.49967 -0.14724,0.7448 -0.0418,0.2974 -0.11908,0.58716 -0.17593,0.88181 -0.0556,0.29485 -0.0692,0.59202 -0.12346,0.8872 -0.0753,0.31015 -0.15272,0.61959 -0.23409,0.92832 -0.0611,0.29562 -0.16207,0.58016 -0.25126,0.8699 -0.0618,0.2918 -0.16409,0.57267 -0.25109,0.85902 -0.0559,0.24222 -0.14589,0.47353 -0.25779,0.70003 -0.0633,0.22442 -0.15815,0.44147 -0.25825,0.65503 -0.12947,0.2139 -0.23905,0.43647 -0.367,0.65114 -0.14464,0.21331 -0.28541,0.4272 -0.4339,0.63868 -0.13219,0.15434 -0.24278,0.31885 -0.33952,0.49135 -0.0774,0.15102 -0.2202,0.25658 -0.30212,0.40516 -0.10788,0.12208 -0.24636,0.21999 -0.3525,0.34393 -0.089,0.14129 -0.19242,0.272 -0.29346,0.40556 -0.12607,0.14503 -0.20636,0.32062 -0.36147,0.44924 -0.21745,0.17616 -0.34281,0.42361 -0.52828,0.62423 0,0 -1.71969,0.64313 -1.71969,0.64313 z"
           inkscape:connector-curvature="0" />
        <flowRoot
           xml:space="preserve"
           id="flowRoot170"
           style="font-style:normal;font-weight:normal;font-size:40px;line-height:1.25;font-family:sans-serif;letter-spacing:0px;word-spacing:0px;fill:#000000;fill-opacity:1;stroke:none"><flowRegion
             id="flowRegion172"><rect
               id="rect174"
               width="172.49655"
               height="42.65538"
               x="290.15332"
               y="365.68646" /></flowRegion><flowPara
             id="flowPara176" /></flowRoot>        <text
           xml:space="preserve"
           style="font-style:normal;font-weight:normal;font-size:3.57359719px;line-height:1.25;font-family:sans-serif;letter-spacing:0px;word-spacing:0px;fill:#ff0000;fill-opacity:1;stroke:none;stroke-width:0.08933993"
           x="10.240085"
           y="38.550404"
           id="text180"
           transform="scale(1.1103966,0.90057912)"><tspan
             sodipodi:role="line"
             id="tspan178"
             x="10.240085"
             y="38.550404"
             style="fill:#ff0000;stroke-width:0.08933993">RODRIGUEZ</tspan></text>
      </g>
    </g>
  </g>
</svg>
